<?xml version="1.0" encoding="utf-8"?>
<!-- Generator: Adobe Illustrator 21.0.0, SVG Export Plug-In . SVG Version: 6.00 Build 0)  -->
<svg version="1.1" id="Layer_1" xmlns="http://www.w3.org/2000/svg" xmlns:xlink="http://www.w3.org/1999/xlink" x="0px" y="0px"
	 viewBox="0 0 50 512" style="enable-background:new 0 0 50 512;" xml:space="preserve">
<style type="text/css">
	.st0{stroke:#FFFFFF;stroke-width:2;stroke-miterlimit:10;}
</style>
<circle class="st0" cx="1.8" cy="1.8" r="1.8"/>
<circle class="st0" cx="9.2" cy="1.8" r="1.8"/>
<circle class="st0" cx="16.5" cy="1.8" r="1.8"/>
<circle class="st0" cx="23.9" cy="1.8" r="1.8"/>
<circle class="st0" cx="31.2" cy="1.8" r="1.8"/>
<circle class="st0" cx="38.6" cy="1.8" r="1.8"/>
<circle class="st0" cx="45.9" cy="1.8" r="1.8"/>
<circle class="st0" cx="5.5" cy="5.5" r="1.8"/>
<circle class="st0" cx="12.8" cy="5.5" r="1.8"/>
<circle class="st0" cx="20.2" cy="5.5" r="1.8"/>
<circle class="st0" cx="27.5" cy="5.5" r="1.8"/>
<circle class="st0" cx="34.9" cy="5.5" r="1.8"/>
<circle class="st0" cx="42.3" cy="5.5" r="1.8"/>
<circle class="st0" cx="1.8" cy="9.2" r="1.8"/>
<circle class="st0" cx="9.2" cy="9.2" r="1.8"/>
<circle class="st0" cx="16.5" cy="9.2" r="1.8"/>
<circle class="st0" cx="23.9" cy="9.2" r="1.8"/>
<circle class="st0" cx="31.2" cy="9.2" r="1.8"/>
<circle class="st0" cx="38.6" cy="9.2" r="1.8"/>
<circle class="st0" cx="45.9" cy="9.2" r="1.8"/>
<circle class="st0" cx="5.5" cy="12.8" r="1.8"/>
<circle class="st0" cx="12.8" cy="12.8" r="1.8"/>
<circle class="st0" cx="20.2" cy="12.8" r="1.8"/>
<circle class="st0" cx="27.5" cy="12.8" r="1.8"/>
<circle class="st0" cx="34.9" cy="12.8" r="1.8"/>
<circle class="st0" cx="42.3" cy="12.8" r="1.8"/>
<circle class="st0" cx="5.5" cy="20.2" r="1.8"/>
<circle class="st0" cx="12.8" cy="20.2" r="1.8"/>
<circle class="st0" cx="20.2" cy="20.2" r="1.8"/>
<circle class="st0" cx="27.5" cy="20.2" r="1.8"/>
<circle class="st0" cx="34.9" cy="20.2" r="1.8"/>
<circle class="st0" cx="42.3" cy="20.2" r="1.8"/>
<circle class="st0" cx="1.8" cy="16.5" r="1.8"/>
<circle class="st0" cx="9.1" cy="16.5" r="1.8"/>
<circle class="st0" cx="16.5" cy="16.5" r="1.8"/>
<circle class="st0" cx="23.9" cy="16.5" r="1.8"/>
<circle class="st0" cx="31.2" cy="16.5" r="1.8"/>
<circle class="st0" cx="38.6" cy="16.5" r="1.8"/>
<circle class="st0" cx="45.9" cy="16.5" r="1.8"/>
<circle class="st0" cx="1.8" cy="23.8" r="1.8"/>
<circle class="st0" cx="9.2" cy="23.8" r="1.8"/>
<circle class="st0" cx="16.5" cy="23.8" r="1.8"/>
<circle class="st0" cx="23.9" cy="23.8" r="1.8"/>
<circle class="st0" cx="31.2" cy="23.8" r="1.8"/>
<circle class="st0" cx="38.6" cy="23.8" r="1.8"/>
<circle class="st0" cx="45.9" cy="23.8" r="1.8"/>
<circle class="st0" cx="5.5" cy="27.5" r="1.8"/>
<circle class="st0" cx="12.8" cy="27.5" r="1.8"/>
<circle class="st0" cx="20.2" cy="27.5" r="1.8"/>
<circle class="st0" cx="27.5" cy="27.5" r="1.8"/>
<circle class="st0" cx="34.9" cy="27.5" r="1.8"/>
<circle class="st0" cx="42.3" cy="27.5" r="1.8"/>
<circle class="st0" cx="1.8" cy="31.2" r="1.8"/>
<circle class="st0" cx="9.2" cy="31.2" r="1.8"/>
<circle class="st0" cx="16.5" cy="31.2" r="1.8"/>
<circle class="st0" cx="23.9" cy="31.2" r="1.8"/>
<circle class="st0" cx="31.2" cy="31.2" r="1.8"/>
<circle class="st0" cx="38.6" cy="31.2" r="1.8"/>
<circle class="st0" cx="45.9" cy="31.2" r="1.8"/>
<circle class="st0" cx="5.5" cy="34.8" r="1.8"/>
<circle class="st0" cx="12.8" cy="34.8" r="1.8"/>
<circle class="st0" cx="20.2" cy="34.8" r="1.8"/>
<circle class="st0" cx="27.5" cy="34.8" r="1.8"/>
<circle class="st0" cx="34.9" cy="34.8" r="1.8"/>
<circle class="st0" cx="42.3" cy="34.8" r="1.8"/>
<circle class="st0" cx="5.5" cy="42.2" r="1.8"/>
<circle class="st0" cx="12.8" cy="42.2" r="1.8"/>
<circle class="st0" cx="20.2" cy="42.2" r="1.8"/>
<circle class="st0" cx="27.5" cy="42.2" r="1.8"/>
<circle class="st0" cx="34.9" cy="42.2" r="1.8"/>
<circle class="st0" cx="42.3" cy="42.2" r="1.8"/>
<circle class="st0" cx="1.8" cy="38.5" r="1.8"/>
<circle class="st0" cx="9.1" cy="38.5" r="1.8"/>
<circle class="st0" cx="16.5" cy="38.5" r="1.8"/>
<circle class="st0" cx="23.9" cy="38.5" r="1.8"/>
<circle class="st0" cx="31.2" cy="38.5" r="1.8"/>
<circle class="st0" cx="38.6" cy="38.5" r="1.8"/>
<circle class="st0" cx="45.9" cy="38.5" r="1.8"/>
<circle class="st0" cx="1.8" cy="45.8" r="1.8"/>
<circle class="st0" cx="9.1" cy="45.8" r="1.8"/>
<circle class="st0" cx="16.5" cy="45.8" r="1.8"/>
<circle class="st0" cx="23.9" cy="45.8" r="1.8"/>
<circle class="st0" cx="31.2" cy="45.8" r="1.8"/>
<circle class="st0" cx="38.6" cy="45.8" r="1.8"/>
<circle class="st0" cx="45.9" cy="45.8" r="1.8"/>
<circle class="st0" cx="5.5" cy="49.5" r="1.8"/>
<circle class="st0" cx="12.8" cy="49.5" r="1.8"/>
<circle class="st0" cx="20.2" cy="49.5" r="1.8"/>
<circle class="st0" cx="27.5" cy="49.5" r="1.8"/>
<circle class="st0" cx="34.9" cy="49.5" r="1.8"/>
<circle class="st0" cx="42.3" cy="49.5" r="1.8"/>
<circle class="st0" cx="1.8" cy="53.2" r="1.8"/>
<circle class="st0" cx="9.1" cy="53.2" r="1.8"/>
<circle class="st0" cx="16.5" cy="53.2" r="1.8"/>
<circle class="st0" cx="23.8" cy="53.2" r="1.8"/>
<circle class="st0" cx="31.2" cy="53.2" r="1.8"/>
<circle class="st0" cx="38.6" cy="53.2" r="1.8"/>
<circle class="st0" cx="45.9" cy="53.2" r="1.8"/>
<circle class="st0" cx="5.5" cy="56.8" r="1.8"/>
<circle class="st0" cx="12.8" cy="56.8" r="1.8"/>
<circle class="st0" cx="20.2" cy="56.8" r="1.8"/>
<circle class="st0" cx="27.5" cy="56.8" r="1.8"/>
<circle class="st0" cx="34.9" cy="56.8" r="1.8"/>
<circle class="st0" cx="42.2" cy="56.8" r="1.8"/>
<circle class="st0" cx="5.5" cy="64.2" r="1.8"/>
<circle class="st0" cx="12.8" cy="64.2" r="1.8"/>
<circle class="st0" cx="20.2" cy="64.2" r="1.8"/>
<circle class="st0" cx="27.5" cy="64.2" r="1.8"/>
<circle class="st0" cx="34.9" cy="64.2" r="1.8"/>
<circle class="st0" cx="42.2" cy="64.2" r="1.8"/>
<circle class="st0" cx="1.8" cy="60.5" r="1.8"/>
<circle class="st0" cx="9.1" cy="60.5" r="1.8"/>
<circle class="st0" cx="16.5" cy="60.5" r="1.8"/>
<circle class="st0" cx="23.8" cy="60.5" r="1.8"/>
<circle class="st0" cx="31.2" cy="60.5" r="1.8"/>
<circle class="st0" cx="38.6" cy="60.5" r="1.8"/>
<circle class="st0" cx="45.9" cy="60.5" r="1.8"/>
<circle class="st0" cx="1.8" cy="67.8" r="1.8"/>
<circle class="st0" cx="9.2" cy="67.8" r="1.8"/>
<circle class="st0" cx="16.5" cy="67.8" r="1.8"/>
<circle class="st0" cx="23.9" cy="67.8" r="1.8"/>
<circle class="st0" cx="31.2" cy="67.8" r="1.8"/>
<circle class="st0" cx="38.6" cy="67.8" r="1.8"/>
<circle class="st0" cx="45.9" cy="67.8" r="1.8"/>
<circle class="st0" cx="5.5" cy="71.5" r="1.8"/>
<circle class="st0" cx="12.8" cy="71.5" r="1.8"/>
<circle class="st0" cx="20.2" cy="71.5" r="1.8"/>
<circle class="st0" cx="27.5" cy="71.5" r="1.8"/>
<circle class="st0" cx="34.9" cy="71.5" r="1.8"/>
<circle class="st0" cx="42.3" cy="71.5" r="1.8"/>
<circle class="st0" cx="1.8" cy="75.2" r="1.8"/>
<circle class="st0" cx="9.1" cy="75.2" r="1.8"/>
<circle class="st0" cx="16.5" cy="75.2" r="1.8"/>
<circle class="st0" cx="23.9" cy="75.2" r="1.8"/>
<circle class="st0" cx="31.2" cy="75.2" r="1.8"/>
<circle class="st0" cx="38.6" cy="75.2" r="1.8"/>
<circle class="st0" cx="45.9" cy="75.2" r="1.8"/>
<circle class="st0" cx="5.5" cy="78.8" r="1.8"/>
<circle class="st0" cx="12.8" cy="78.8" r="1.8"/>
<circle class="st0" cx="20.2" cy="78.8" r="1.8"/>
<circle class="st0" cx="27.5" cy="78.8" r="1.8"/>
<circle class="st0" cx="34.9" cy="78.8" r="1.8"/>
<circle class="st0" cx="42.3" cy="78.8" r="1.8"/>
<circle class="st0" cx="5.5" cy="86.2" r="1.8"/>
<circle class="st0" cx="12.8" cy="86.2" r="1.8"/>
<circle class="st0" cx="20.2" cy="86.2" r="1.8"/>
<circle class="st0" cx="27.5" cy="86.2" r="1.8"/>
<circle class="st0" cx="34.9" cy="86.2" r="1.8"/>
<circle class="st0" cx="42.2" cy="86.2" r="1.8"/>
<circle class="st0" cx="1.8" cy="82.5" r="1.8"/>
<circle class="st0" cx="9.1" cy="82.5" r="1.8"/>
<circle class="st0" cx="16.5" cy="82.5" r="1.8"/>
<circle class="st0" cx="23.8" cy="82.5" r="1.8"/>
<circle class="st0" cx="31.2" cy="82.5" r="1.8"/>
<circle class="st0" cx="38.6" cy="82.5" r="1.8"/>
<circle class="st0" cx="45.9" cy="82.5" r="1.8"/>
<circle class="st0" cx="1.8" cy="89.8" r="1.8"/>
<circle class="st0" cx="9.2" cy="89.8" r="1.8"/>
<circle class="st0" cx="16.5" cy="89.8" r="1.8"/>
<circle class="st0" cx="23.9" cy="89.8" r="1.8"/>
<circle class="st0" cx="31.2" cy="89.8" r="1.8"/>
<circle class="st0" cx="38.6" cy="89.8" r="1.8"/>
<circle class="st0" cx="45.9" cy="89.8" r="1.8"/>
<circle class="st0" cx="5.5" cy="93.5" r="1.8"/>
<circle class="st0" cx="12.8" cy="93.5" r="1.8"/>
<circle class="st0" cx="20.2" cy="93.5" r="1.8"/>
<circle class="st0" cx="27.5" cy="93.5" r="1.8"/>
<circle class="st0" cx="34.9" cy="93.5" r="1.8"/>
<circle class="st0" cx="42.3" cy="93.5" r="1.8"/>
<circle class="st0" cx="1.8" cy="97.2" r="1.8"/>
<circle class="st0" cx="9.1" cy="97.2" r="1.8"/>
<circle class="st0" cx="16.5" cy="97.2" r="1.8"/>
<circle class="st0" cx="23.9" cy="97.2" r="1.8"/>
<circle class="st0" cx="31.2" cy="97.2" r="1.8"/>
<circle class="st0" cx="38.6" cy="97.2" r="1.8"/>
<circle class="st0" cx="45.9" cy="97.2" r="1.8"/>
<circle class="st0" cx="5.5" cy="100.8" r="1.8"/>
<circle class="st0" cx="12.8" cy="100.8" r="1.8"/>
<circle class="st0" cx="20.2" cy="100.8" r="1.8"/>
<circle class="st0" cx="27.5" cy="100.8" r="1.8"/>
<circle class="st0" cx="34.9" cy="100.8" r="1.8"/>
<circle class="st0" cx="42.3" cy="100.8" r="1.8"/>
<circle class="st0" cx="5.5" cy="108.2" r="1.8"/>
<circle class="st0" cx="12.8" cy="108.2" r="1.8"/>
<circle class="st0" cx="20.2" cy="108.2" r="1.8"/>
<circle class="st0" cx="27.5" cy="108.2" r="1.8"/>
<circle class="st0" cx="34.9" cy="108.2" r="1.8"/>
<circle class="st0" cx="42.2" cy="108.2" r="1.8"/>
<circle class="st0" cx="1.8" cy="104.5" r="1.8"/>
<circle class="st0" cx="9.1" cy="104.5" r="1.8"/>
<circle class="st0" cx="16.5" cy="104.5" r="1.8"/>
<circle class="st0" cx="23.8" cy="104.5" r="1.8"/>
<circle class="st0" cx="31.2" cy="104.5" r="1.8"/>
<circle class="st0" cx="38.6" cy="104.5" r="1.8"/>
<circle class="st0" cx="45.9" cy="104.5" r="1.8"/>
<circle class="st0" cx="1.8" cy="111.8" r="1.8"/>
<circle class="st0" cx="9.2" cy="111.8" r="1.8"/>
<circle class="st0" cx="16.5" cy="111.8" r="1.8"/>
<circle class="st0" cx="23.9" cy="111.8" r="1.8"/>
<circle class="st0" cx="31.2" cy="111.8" r="1.8"/>
<circle class="st0" cx="38.6" cy="111.8" r="1.8"/>
<circle class="st0" cx="45.9" cy="111.8" r="1.8"/>
<circle class="st0" cx="5.5" cy="115.5" r="1.8"/>
<circle class="st0" cx="12.8" cy="115.5" r="1.8"/>
<circle class="st0" cx="20.2" cy="115.5" r="1.8"/>
<circle class="st0" cx="27.5" cy="115.5" r="1.8"/>
<circle class="st0" cx="34.9" cy="115.5" r="1.8"/>
<circle class="st0" cx="42.3" cy="115.5" r="1.8"/>
<circle class="st0" cx="1.8" cy="119.2" r="1.8"/>
<circle class="st0" cx="9.1" cy="119.2" r="1.8"/>
<circle class="st0" cx="16.5" cy="119.2" r="1.8"/>
<circle class="st0" cx="23.9" cy="119.2" r="1.8"/>
<circle class="st0" cx="31.2" cy="119.2" r="1.8"/>
<circle class="st0" cx="38.6" cy="119.2" r="1.8"/>
<circle class="st0" cx="45.9" cy="119.2" r="1.8"/>
<circle class="st0" cx="5.5" cy="122.8" r="1.8"/>
<circle class="st0" cx="12.8" cy="122.8" r="1.8"/>
<circle class="st0" cx="20.2" cy="122.8" r="1.8"/>
<circle class="st0" cx="27.5" cy="122.8" r="1.8"/>
<circle class="st0" cx="34.9" cy="122.8" r="1.8"/>
<circle class="st0" cx="42.3" cy="122.8" r="1.8"/>
<circle class="st0" cx="5.5" cy="130.2" r="1.8"/>
<circle class="st0" cx="12.8" cy="130.2" r="1.8"/>
<circle class="st0" cx="20.2" cy="130.2" r="1.8"/>
<circle class="st0" cx="27.5" cy="130.2" r="1.8"/>
<circle class="st0" cx="34.9" cy="130.2" r="1.8"/>
<circle class="st0" cx="42.2" cy="130.2" r="1.8"/>
<circle class="st0" cx="1.8" cy="126.5" r="1.8"/>
<circle class="st0" cx="9.1" cy="126.5" r="1.8"/>
<circle class="st0" cx="16.5" cy="126.5" r="1.8"/>
<circle class="st0" cx="23.8" cy="126.5" r="1.8"/>
<circle class="st0" cx="31.2" cy="126.5" r="1.8"/>
<circle class="st0" cx="38.6" cy="126.5" r="1.8"/>
<circle class="st0" cx="45.9" cy="126.5" r="1.8"/>
<circle class="st0" cx="1.8" cy="133.8" r="1.8"/>
<circle class="st0" cx="9.2" cy="133.8" r="1.8"/>
<circle class="st0" cx="16.5" cy="133.8" r="1.8"/>
<circle class="st0" cx="23.9" cy="133.8" r="1.8"/>
<circle class="st0" cx="31.2" cy="133.8" r="1.8"/>
<circle class="st0" cx="38.6" cy="133.8" r="1.8"/>
<circle class="st0" cx="45.9" cy="133.8" r="1.8"/>
<circle class="st0" cx="5.5" cy="137.5" r="1.8"/>
<circle class="st0" cx="12.8" cy="137.5" r="1.8"/>
<circle class="st0" cx="20.2" cy="137.5" r="1.8"/>
<circle class="st0" cx="27.5" cy="137.5" r="1.8"/>
<circle class="st0" cx="34.9" cy="137.5" r="1.8"/>
<circle class="st0" cx="42.3" cy="137.5" r="1.8"/>
<circle class="st0" cx="1.8" cy="141.2" r="1.8"/>
<circle class="st0" cx="9.1" cy="141.2" r="1.8"/>
<circle class="st0" cx="16.5" cy="141.2" r="1.8"/>
<circle class="st0" cx="23.9" cy="141.2" r="1.8"/>
<circle class="st0" cx="31.2" cy="141.2" r="1.8"/>
<circle class="st0" cx="38.6" cy="141.2" r="1.8"/>
<circle class="st0" cx="45.9" cy="141.2" r="1.8"/>
<circle class="st0" cx="5.5" cy="144.8" r="1.8"/>
<circle class="st0" cx="12.8" cy="144.8" r="1.8"/>
<circle class="st0" cx="20.2" cy="144.8" r="1.8"/>
<circle class="st0" cx="27.5" cy="144.8" r="1.8"/>
<circle class="st0" cx="34.9" cy="144.8" r="1.8"/>
<circle class="st0" cx="42.3" cy="144.8" r="1.8"/>
<circle class="st0" cx="5.5" cy="152.2" r="1.8"/>
<circle class="st0" cx="12.8" cy="152.2" r="1.8"/>
<circle class="st0" cx="20.2" cy="152.2" r="1.8"/>
<circle class="st0" cx="27.5" cy="152.2" r="1.8"/>
<circle class="st0" cx="34.9" cy="152.2" r="1.8"/>
<circle class="st0" cx="42.2" cy="152.2" r="1.8"/>
<circle class="st0" cx="1.8" cy="148.5" r="1.8"/>
<circle class="st0" cx="9.1" cy="148.5" r="1.8"/>
<circle class="st0" cx="16.5" cy="148.5" r="1.8"/>
<circle class="st0" cx="23.8" cy="148.5" r="1.8"/>
<circle class="st0" cx="31.2" cy="148.5" r="1.8"/>
<circle class="st0" cx="38.6" cy="148.5" r="1.8"/>
<circle class="st0" cx="45.9" cy="148.5" r="1.8"/>
<circle class="st0" cx="1.8" cy="155.8" r="1.8"/>
<circle class="st0" cx="9.2" cy="155.8" r="1.8"/>
<circle class="st0" cx="16.5" cy="155.8" r="1.8"/>
<circle class="st0" cx="23.9" cy="155.8" r="1.8"/>
<circle class="st0" cx="31.2" cy="155.8" r="1.8"/>
<circle class="st0" cx="38.6" cy="155.8" r="1.8"/>
<circle class="st0" cx="45.9" cy="155.8" r="1.8"/>
<circle class="st0" cx="5.5" cy="159.5" r="1.8"/>
<circle class="st0" cx="12.8" cy="159.5" r="1.8"/>
<circle class="st0" cx="20.2" cy="159.5" r="1.8"/>
<circle class="st0" cx="27.5" cy="159.5" r="1.8"/>
<circle class="st0" cx="34.9" cy="159.5" r="1.8"/>
<circle class="st0" cx="42.3" cy="159.5" r="1.8"/>
<circle class="st0" cx="1.8" cy="163.2" r="1.8"/>
<circle class="st0" cx="9.1" cy="163.2" r="1.8"/>
<circle class="st0" cx="16.5" cy="163.2" r="1.8"/>
<circle class="st0" cx="23.9" cy="163.2" r="1.8"/>
<circle class="st0" cx="31.2" cy="163.2" r="1.8"/>
<circle class="st0" cx="38.6" cy="163.2" r="1.8"/>
<circle class="st0" cx="45.9" cy="163.2" r="1.8"/>
<circle class="st0" cx="5.5" cy="166.8" r="1.8"/>
<circle class="st0" cx="12.8" cy="166.8" r="1.8"/>
<circle class="st0" cx="20.2" cy="166.8" r="1.8"/>
<circle class="st0" cx="27.5" cy="166.8" r="1.8"/>
<circle class="st0" cx="34.9" cy="166.8" r="1.8"/>
<circle class="st0" cx="42.3" cy="166.8" r="1.8"/>
<circle class="st0" cx="5.5" cy="174.2" r="1.8"/>
<circle class="st0" cx="12.8" cy="174.2" r="1.8"/>
<circle class="st0" cx="20.2" cy="174.2" r="1.8"/>
<circle class="st0" cx="27.5" cy="174.2" r="1.8"/>
<circle class="st0" cx="34.9" cy="174.2" r="1.8"/>
<circle class="st0" cx="42.2" cy="174.2" r="1.8"/>
<circle class="st0" cx="1.8" cy="170.5" r="1.8"/>
<circle class="st0" cx="9.1" cy="170.5" r="1.8"/>
<circle class="st0" cx="16.5" cy="170.5" r="1.8"/>
<circle class="st0" cx="23.8" cy="170.5" r="1.8"/>
<circle class="st0" cx="31.2" cy="170.5" r="1.8"/>
<circle class="st0" cx="38.6" cy="170.5" r="1.8"/>
<circle class="st0" cx="45.9" cy="170.5" r="1.8"/>
<circle class="st0" cx="1.8" cy="177.8" r="1.8"/>
<circle class="st0" cx="9.2" cy="177.8" r="1.8"/>
<circle class="st0" cx="16.5" cy="177.8" r="1.8"/>
<circle class="st0" cx="23.9" cy="177.8" r="1.8"/>
<circle class="st0" cx="31.2" cy="177.8" r="1.8"/>
<circle class="st0" cx="38.6" cy="177.8" r="1.8"/>
<circle class="st0" cx="45.9" cy="177.8" r="1.8"/>
<circle class="st0" cx="5.5" cy="181.5" r="1.8"/>
<circle class="st0" cx="12.8" cy="181.5" r="1.8"/>
<circle class="st0" cx="20.2" cy="181.5" r="1.8"/>
<circle class="st0" cx="27.5" cy="181.5" r="1.8"/>
<circle class="st0" cx="34.9" cy="181.5" r="1.8"/>
<circle class="st0" cx="42.3" cy="181.5" r="1.8"/>
<circle class="st0" cx="1.8" cy="185.2" r="1.8"/>
<circle class="st0" cx="9.1" cy="185.2" r="1.8"/>
<circle class="st0" cx="16.5" cy="185.2" r="1.8"/>
<circle class="st0" cx="23.9" cy="185.2" r="1.8"/>
<circle class="st0" cx="31.2" cy="185.2" r="1.8"/>
<circle class="st0" cx="38.6" cy="185.2" r="1.8"/>
<circle class="st0" cx="45.9" cy="185.2" r="1.8"/>
<circle class="st0" cx="5.5" cy="188.8" r="1.8"/>
<circle class="st0" cx="12.8" cy="188.8" r="1.8"/>
<circle class="st0" cx="20.2" cy="188.8" r="1.8"/>
<circle class="st0" cx="27.5" cy="188.8" r="1.8"/>
<circle class="st0" cx="34.9" cy="188.8" r="1.8"/>
<circle class="st0" cx="42.3" cy="188.8" r="1.8"/>
<circle class="st0" cx="5.5" cy="196.2" r="1.8"/>
<circle class="st0" cx="12.8" cy="196.2" r="1.8"/>
<circle class="st0" cx="20.2" cy="196.2" r="1.8"/>
<circle class="st0" cx="27.5" cy="196.2" r="1.8"/>
<circle class="st0" cx="34.9" cy="196.2" r="1.8"/>
<circle class="st0" cx="42.2" cy="196.2" r="1.8"/>
<circle class="st0" cx="1.8" cy="192.5" r="1.8"/>
<circle class="st0" cx="9.1" cy="192.5" r="1.8"/>
<circle class="st0" cx="16.5" cy="192.5" r="1.8"/>
<circle class="st0" cx="23.8" cy="192.5" r="1.8"/>
<circle class="st0" cx="31.2" cy="192.5" r="1.8"/>
<circle class="st0" cx="38.6" cy="192.5" r="1.8"/>
<circle class="st0" cx="45.9" cy="192.5" r="1.8"/>
<circle class="st0" cx="1.8" cy="199.8" r="1.8"/>
<circle class="st0" cx="9.2" cy="199.8" r="1.8"/>
<circle class="st0" cx="16.5" cy="199.8" r="1.8"/>
<circle class="st0" cx="23.9" cy="199.8" r="1.8"/>
<circle class="st0" cx="31.2" cy="199.8" r="1.8"/>
<circle class="st0" cx="38.6" cy="199.8" r="1.8"/>
<circle class="st0" cx="45.9" cy="199.8" r="1.8"/>
<circle class="st0" cx="5.5" cy="203.5" r="1.8"/>
<circle class="st0" cx="12.8" cy="203.5" r="1.8"/>
<circle class="st0" cx="20.2" cy="203.5" r="1.8"/>
<circle class="st0" cx="27.5" cy="203.5" r="1.8"/>
<circle class="st0" cx="34.9" cy="203.5" r="1.8"/>
<circle class="st0" cx="42.3" cy="203.5" r="1.8"/>
<circle class="st0" cx="1.8" cy="207.2" r="1.8"/>
<circle class="st0" cx="9.1" cy="207.2" r="1.8"/>
<circle class="st0" cx="16.5" cy="207.2" r="1.8"/>
<circle class="st0" cx="23.9" cy="207.2" r="1.8"/>
<circle class="st0" cx="31.2" cy="207.2" r="1.8"/>
<circle class="st0" cx="38.6" cy="207.2" r="1.8"/>
<circle class="st0" cx="45.9" cy="207.2" r="1.8"/>
<circle class="st0" cx="5.5" cy="210.8" r="1.8"/>
<circle class="st0" cx="12.8" cy="210.8" r="1.8"/>
<circle class="st0" cx="20.2" cy="210.8" r="1.8"/>
<circle class="st0" cx="27.5" cy="210.8" r="1.8"/>
<circle class="st0" cx="34.9" cy="210.8" r="1.8"/>
<circle class="st0" cx="42.3" cy="210.8" r="1.8"/>
<circle class="st0" cx="5.5" cy="218.2" r="1.8"/>
<circle class="st0" cx="12.8" cy="218.2" r="1.8"/>
<circle class="st0" cx="20.2" cy="218.2" r="1.8"/>
<circle class="st0" cx="27.5" cy="218.2" r="1.8"/>
<circle class="st0" cx="34.9" cy="218.2" r="1.8"/>
<circle class="st0" cx="42.2" cy="218.2" r="1.8"/>
<circle class="st0" cx="1.8" cy="214.5" r="1.8"/>
<circle class="st0" cx="9.1" cy="214.5" r="1.8"/>
<circle class="st0" cx="16.5" cy="214.5" r="1.8"/>
<circle class="st0" cx="23.8" cy="214.5" r="1.8"/>
<circle class="st0" cx="31.2" cy="214.5" r="1.8"/>
<circle class="st0" cx="38.6" cy="214.5" r="1.8"/>
<circle class="st0" cx="45.9" cy="214.5" r="1.8"/>
<circle class="st0" cx="1.8" cy="221.8" r="1.8"/>
<circle class="st0" cx="9.2" cy="221.8" r="1.8"/>
<circle class="st0" cx="16.5" cy="221.8" r="1.8"/>
<circle class="st0" cx="23.9" cy="221.8" r="1.8"/>
<circle class="st0" cx="31.2" cy="221.8" r="1.8"/>
<circle class="st0" cx="38.6" cy="221.8" r="1.8"/>
<circle class="st0" cx="45.9" cy="221.8" r="1.8"/>
<circle class="st0" cx="5.5" cy="225.5" r="1.8"/>
<circle class="st0" cx="12.8" cy="225.5" r="1.8"/>
<circle class="st0" cx="20.2" cy="225.5" r="1.8"/>
<circle class="st0" cx="27.5" cy="225.5" r="1.8"/>
<circle class="st0" cx="34.9" cy="225.5" r="1.8"/>
<circle class="st0" cx="42.3" cy="225.5" r="1.8"/>
<circle class="st0" cx="1.8" cy="229.2" r="1.8"/>
<circle class="st0" cx="9.1" cy="229.2" r="1.8"/>
<circle class="st0" cx="16.5" cy="229.2" r="1.8"/>
<circle class="st0" cx="23.9" cy="229.2" r="1.8"/>
<circle class="st0" cx="31.2" cy="229.2" r="1.8"/>
<circle class="st0" cx="38.6" cy="229.2" r="1.8"/>
<circle class="st0" cx="45.9" cy="229.2" r="1.8"/>
<circle class="st0" cx="5.5" cy="232.8" r="1.8"/>
<circle class="st0" cx="12.8" cy="232.8" r="1.8"/>
<circle class="st0" cx="20.2" cy="232.8" r="1.8"/>
<circle class="st0" cx="27.5" cy="232.8" r="1.8"/>
<circle class="st0" cx="34.9" cy="232.8" r="1.8"/>
<circle class="st0" cx="42.3" cy="232.8" r="1.8"/>
<circle class="st0" cx="1.8" cy="236.5" r="1.8"/>
<circle class="st0" cx="9.1" cy="236.5" r="1.8"/>
<circle class="st0" cx="16.5" cy="236.5" r="1.8"/>
<circle class="st0" cx="23.8" cy="236.5" r="1.8"/>
<circle class="st0" cx="31.2" cy="236.5" r="1.8"/>
<circle class="st0" cx="38.6" cy="236.5" r="1.8"/>
<circle class="st0" cx="45.9" cy="236.5" r="1.8"/>
</svg>
